<svg width="88" height="77" viewBox="0 0 88 77" fill="none" xmlns="http://www.w3.org/2000/svg">
<path d="M65.2833 76.3322L69.1758 69.6447L37.8596 69.6996L21.7054 41.3466L17.8901 47.8364L34.1216 76.1125L34.1436 76.1016V76.1455L65.2833 76.3322Z" fill="#D9693B"/>
<path d="M70.9906 66.36H71.0348L71.0458 66.272L87.4639 38.8604L83.1416 32.9157L67.2748 59.8319L43.3478 59.7989L27.5913 31.4075L23.655 37.9356L39.8746 66.2169L70.9024 66.36L70.9686 66.3931L70.9906 66.36Z" fill="#D9693B"/>
<path d="M65.9824 0.198769L58.2726 0.253792L74.0973 27.1582L57.8455 55.4601L65.3691 55.4491L81.4895 27.1142L81.4676 27.1032L81.5005 27.0812L65.9824 0.198769Z" fill="#D9693B"/>
<path d="M54.3239 0.231529L54.3019 0.198456L54.2137 0.231529L22.2255 -1.14441e-05L19.2814 6.74781L50.5639 6.74781L62.6821 27.3882L46.1642 55.3829L53.7947 55.4601L69.9707 27.1236L54.368 0.308712V0.231529H54.3239Z" fill="#D9693B"/>
<path d="M0.00019455 38.2258L3.86132 44.9246L19.5264 17.965L52.2798 18.272L48.551 11.7376L15.8308 11.5293V11.5512L15.7977 11.5293L0.00019455 38.2258Z" fill="#D9693B"/>
<path d="M5.78646 48.2833L5.76441 48.3274L5.83058 48.3715L21.3489 76.3322H29.0916L13.3085 48.3494L25.3416 27.6819L57.8452 28.3319L54.1724 21.6447L21.5254 21.4684L5.83058 48.2062L5.76441 48.2503L5.78646 48.2833Z" fill="#D9693B"/>
</svg>
