<svg xmlns="http://www.w3.org/2000/svg" fill="none" viewBox="0 0 1634 322" height="322" width="1634">
<path fill="white" d="M451.68 242.404L391.576 78.2513H453.578L482.682 182.683L511.785 78.2513H571.573L511.468 242.404H451.68Z"></path>
<path fill="white" d="M740.384 189.562C737.009 208.739 728.679 223.226 715.393 233.023C702.107 242.612 684.075 247.406 661.299 247.406C633.883 247.406 613.005 240.215 598.664 225.832C584.323 211.449 577.153 190.5 577.153 162.985C577.153 134.845 584.64 112.854 599.613 97.0116C614.586 81.1696 635.359 73.2486 661.932 73.2486C687.028 73.2486 706.535 80.5442 720.454 95.1355C734.584 109.518 741.649 129.738 741.649 155.794V173.616H632.196C633.04 185.289 635.676 193.731 640.104 198.942C644.533 204.153 651.387 206.759 660.666 206.759C675.007 206.759 683.759 201.027 686.922 189.562H740.384ZM688.821 141.411C688.399 131.614 685.973 124.527 681.545 120.149C677.327 115.563 670.789 113.27 661.932 113.27C644.217 113.27 634.305 122.651 632.196 141.411H688.821Z"></path>
<path fill="white" d="M771.578 242.404V78.2513H827.253V98.2622C832.947 90.5497 839.59 84.8174 847.182 81.0653C854.775 77.3133 863.632 75.4373 873.755 75.4373C879.66 75.4373 885.038 75.9584 889.888 77.0006L883.561 125.465C879.133 124.214 873.228 123.589 865.846 123.589C854.669 123.589 846.023 125.777 839.907 130.155C832.525 135.574 828.835 144.954 828.835 158.295V242.404H771.578Z"></path>
<path fill="white" d="M1014.15 216.139C1002.77 229.271 987.161 235.837 967.337 235.837C946.247 235.837 929.903 228.959 918.304 215.201C906.705 201.444 900.906 182.058 900.906 157.044C900.906 131.197 907.127 110.769 919.57 95.7609C932.012 80.7527 948.989 73.2486 970.5 73.2486C990.324 73.2486 1005.4 80.1273 1015.74 93.8848V77.9386H1071.41V222.08C1071.41 250.637 1064.45 271.795 1050.53 285.552C1036.61 299.518 1015.21 306.501 986.317 306.501C937.39 306.501 911.134 287.22 907.549 248.657H963.541C965.017 259.913 972.82 265.541 986.95 265.541C997.283 265.541 1004.35 262.414 1008.14 256.161C1012.15 250.116 1014.15 239.068 1014.15 223.018V216.139ZM1014.15 152.667C1014.15 141.411 1011.94 132.969 1007.51 127.341C1002.66 121.296 995.702 118.273 986.633 118.273C977.776 118.273 970.922 121.4 966.071 127.653C961.221 133.907 958.796 142.766 958.796 154.23C958.796 165.695 961.115 174.554 965.755 180.807C970.605 186.852 977.459 189.875 986.317 189.875C994.964 189.875 1002.03 186.644 1007.51 180.182C1011.94 174.762 1014.15 166.946 1014.15 156.732V152.667Z"></path>
<path fill="white" d="M1264.63 189.562C1261.25 208.739 1252.92 223.226 1239.64 233.023C1226.35 242.612 1208.32 247.406 1185.54 247.406C1158.13 247.406 1137.25 240.215 1122.91 225.832C1108.57 211.449 1101.4 190.5 1101.4 162.985C1101.4 134.845 1108.88 112.854 1123.86 97.0116C1138.83 81.1696 1159.6 73.2486 1186.18 73.2486C1211.27 73.2486 1230.78 80.5442 1244.7 95.1355C1258.83 109.518 1265.89 129.738 1265.89 155.794V173.616H1156.44C1157.28 185.289 1159.92 193.731 1164.35 198.942C1168.78 204.153 1175.63 206.759 1184.91 206.759C1199.25 206.759 1208 201.027 1211.17 189.562H1264.63ZM1213.06 141.411C1212.64 131.614 1210.22 124.527 1205.79 120.149C1201.57 115.563 1195.03 113.27 1186.18 113.27C1168.46 113.27 1158.55 122.651 1156.44 141.411H1213.06Z"></path>
<path fill="white" d="M1287.43 242.404V182.683H1342.47V242.404H1287.43Z"></path>
<path fill="white" d="M1374.6 242.404V78.2513H1431.85V242.404H1374.6ZM1374.28 60.1164V19.1565H1432.17V60.1164H1374.28Z"></path>
<path fill="white" d="M1547.32 247.406C1520.33 247.406 1499.35 239.902 1484.37 224.894C1469.4 209.677 1461.91 188.416 1461.91 161.109C1461.91 133.386 1469.5 111.811 1484.69 96.3862C1500.08 80.9611 1521.38 73.2486 1548.59 73.2486C1575.58 73.2486 1596.57 80.8569 1611.54 96.0735C1626.51 111.29 1634 132.552 1634 159.858C1634 187.373 1626.41 208.844 1611.22 224.269C1596.04 239.694 1574.74 247.406 1547.32 247.406ZM1547.96 202.694C1566.73 202.694 1576.11 188.52 1576.11 160.171C1576.11 132.031 1566.73 117.961 1547.96 117.961C1529.19 117.961 1519.8 132.135 1519.8 160.484C1519.8 188.624 1529.19 202.694 1547.96 202.694Z"></path>
<path fill="#D9693B" d="M277.988 322L294.563 293.79L161.211 294.021L92.4217 174.417L76.1752 201.793L145.293 321.074L145.387 321.027V321.213L277.988 322Z"></path>
<path fill="#D9693B" d="M302.294 279.934H302.482L302.529 279.562L372.441 163.929L354.036 138.852L286.471 252.395L184.583 252.256L117.488 132.49L100.726 160.028L169.793 279.33L301.918 279.934L302.2 280.073L302.294 279.934Z"></path>
<path fill="#D9693B" d="M280.966 0.838527L248.136 1.07063L315.522 114.564L246.317 233.953L278.355 233.907L347 114.379L346.907 114.332L347.047 114.239L280.966 0.838527Z"></path>
<path fill="#D9693B" d="M231.321 0.976723L231.227 0.837194L230.852 0.976723L94.6372 -1.5668e-05L82.1004 28.4651L215.31 28.4651L266.912 115.535L196.575 233.628L229.067 233.953L297.949 114.418L231.509 1.3023V0.976723H231.321Z"></path>
<path fill="#D9693B" d="M0.000504691 161.252L16.4422 189.51L83.1485 75.7836L222.621 77.0786L206.743 49.5141L67.4115 48.6354V48.7279L67.2705 48.6354L0.000504691 161.252Z"></path>
<path fill="#D9693B" d="M24.6401 203.679L24.5462 203.865L24.828 204.051L90.9093 322H123.88L56.671 203.958L107.911 116.773L246.32 119.515L230.681 91.3061L91.6608 90.5625L24.828 203.353L24.5462 203.539L24.6401 203.679Z"></path>
</svg>
