<svg width="384" height="77" viewBox="0 0 384 77" fill="none" xmlns="http://www.w3.org/2000/svg">
<path d="M106.072 57.4633L91.9575 18.55H106.518L113.352 43.3063L120.187 18.55H134.227L120.113 57.4633H106.072Z" fill="#061D31"/>
<path d="M173.87 44.9369C173.078 49.483 171.122 52.9172 168.002 55.2397C164.882 57.5127 160.647 58.6492 155.298 58.6492C148.86 58.6492 143.957 56.9445 140.589 53.5349C137.222 50.1254 135.538 45.1593 135.538 38.6367C135.538 31.9658 137.296 26.7527 140.812 22.9972C144.329 19.2418 149.207 17.364 155.447 17.364C161.341 17.364 165.922 19.0935 169.19 22.5525C172.509 25.962 174.168 30.7552 174.168 36.9319V41.1568H148.464C148.662 43.9239 149.281 45.9252 150.321 47.1605C151.361 48.3959 152.971 49.0136 155.15 49.0136C158.518 49.0136 160.573 47.6547 161.316 44.9369H173.87ZM161.762 33.5223C161.662 31.1999 161.093 29.5198 160.053 28.4821C159.062 27.395 157.527 26.8515 155.447 26.8515C151.287 26.8515 148.959 29.0751 148.464 33.5223H161.762Z" fill="#061D31"/>
<path d="M181.196 57.4633V18.55H194.271V23.2937C195.608 21.4654 197.168 20.1065 198.951 19.2171C200.734 18.3276 202.814 17.8829 205.191 17.8829C206.578 17.8829 207.841 18.0064 208.98 18.2535L207.494 29.7422C206.454 29.4457 205.067 29.2975 203.334 29.2975C200.709 29.2975 198.678 29.8163 197.242 30.854C195.509 32.1388 194.642 34.3624 194.642 37.5249V57.4633H181.196Z" fill="#061D31"/>
<path d="M238.162 51.2372C235.488 54.3502 231.823 55.9068 227.167 55.9068C222.215 55.9068 218.377 54.2761 215.653 51.0148C212.929 47.7535 211.567 43.158 211.567 37.2284C211.567 31.1011 213.028 26.2585 215.95 22.7007C218.872 19.1429 222.859 17.364 227.91 17.364C232.566 17.364 236.107 18.9947 238.534 22.256V18.4759H251.608V52.6455C251.608 59.4152 249.974 64.4307 246.705 67.692C243.437 71.0027 238.41 72.658 231.625 72.658C220.135 72.658 213.969 68.0873 213.127 58.9457H226.276C226.623 61.6141 228.455 62.9482 231.773 62.9482C234.2 62.9482 235.859 62.207 236.751 60.7246C237.692 59.2916 238.162 56.6727 238.162 52.8678V51.2372ZM238.162 36.1907C238.162 33.5223 237.642 31.5211 236.602 30.1869C235.463 28.7539 233.829 28.0374 231.699 28.0374C229.619 28.0374 228.009 28.7786 226.87 30.261C225.731 31.7434 225.162 33.8435 225.162 36.5613C225.162 39.279 225.706 41.3791 226.796 42.8615C227.935 44.2945 229.545 45.011 231.625 45.011C233.655 45.011 235.314 44.2451 236.602 42.7133C237.642 41.4285 238.162 39.5755 238.162 37.1543V36.1907Z" fill="#061D31"/>
<path d="M296.983 44.9369C296.19 49.483 294.234 52.9172 291.114 55.2397C287.994 57.5127 283.759 58.6492 278.411 58.6492C271.972 58.6492 267.069 56.9445 263.702 53.5349C260.334 50.1254 258.65 45.1593 258.65 38.6367C258.65 31.9658 260.408 26.7527 263.924 22.9972C267.441 19.2418 272.319 17.364 278.559 17.364C284.453 17.364 289.034 19.0935 292.302 22.5525C295.621 25.962 297.28 30.7552 297.28 36.9319V41.1568H271.576C271.774 43.9239 272.393 45.9252 273.433 47.1605C274.473 48.3959 276.083 49.0136 278.262 49.0136C281.63 49.0136 283.685 47.6547 284.428 44.9369H296.983ZM284.874 33.5223C284.775 31.1999 284.205 29.5198 283.165 28.4821C282.174 27.395 280.639 26.8515 278.559 26.8515C274.399 26.8515 272.071 29.0751 271.576 33.5223H284.874Z" fill="#061D31"/>
<path d="M302.337 57.4633V43.3063H315.263V57.4633H302.337Z" fill="#061D31"/>
<path d="M322.807 57.4633V18.55H336.254V57.4633H322.807ZM322.733 14.251V4.54117H336.328V14.251H322.733Z" fill="#061D31"/>
<path d="M363.37 58.6492C357.031 58.6492 352.103 56.8703 348.587 53.3126C345.07 49.7053 343.312 44.6651 343.312 38.1919C343.312 31.6199 345.095 26.5056 348.661 22.849C352.276 19.1924 357.278 17.364 363.667 17.364C370.006 17.364 374.934 19.1676 378.45 22.7748C381.967 26.3821 383.725 31.4223 383.725 37.8955C383.725 44.4181 381.942 49.5077 378.376 53.1643C374.81 56.8209 369.808 58.6492 363.37 58.6492ZM363.518 48.05C367.926 48.05 370.13 44.6898 370.13 37.9696C370.13 31.2987 367.926 27.9633 363.518 27.9633C359.111 27.9633 356.907 31.3234 356.907 38.0437C356.907 44.7146 359.111 48.05 363.518 48.05Z" fill="#061D31"/>
<path d="M65.2833 76.3322L69.1758 69.6447L37.8596 69.6996L21.7054 41.3466L17.8901 47.8364L34.1216 76.1126L34.1436 76.1016V76.1455L65.2833 76.3322Z" fill="#D9693B"/>
<path d="M70.9906 66.3601H71.0348L71.0458 66.272L87.4639 38.8604L83.1416 32.9157L67.2748 59.8319L43.3478 59.7989L27.5913 31.4075L23.655 37.9357L39.8746 66.217L70.9024 66.3601L70.9686 66.3931L70.9906 66.3601Z" fill="#D9693B"/>
<path d="M65.9824 0.198799L58.2726 0.253822L74.0973 27.1582L57.8455 55.4601L65.3691 55.4491L81.4895 27.1142L81.4676 27.1032L81.5005 27.0812L65.9824 0.198799Z" fill="#D9693B"/>
<path d="M54.3239 0.23156L54.3019 0.198486L54.2137 0.23156L22.2255 1.90735e-05L19.2814 6.74784L50.5639 6.74784L62.6821 27.3883L46.1642 55.3829L53.7947 55.4601L69.9707 27.1236L54.368 0.308743V0.23156H54.3239Z" fill="#D9693B"/>
<path d="M0.00019455 38.2259L3.86132 44.9247L19.5264 17.965L52.2798 18.272L48.551 11.7377L15.8308 11.5294V11.5513L15.7977 11.5294L0.00019455 38.2259Z" fill="#D9693B"/>
<path d="M5.78646 48.2834L5.76441 48.3274L5.83058 48.3715L21.3489 76.3322H29.0916L13.3085 48.3495L25.3416 27.6819L57.8452 28.3319L54.1724 21.6447L21.5254 21.4684L5.83058 48.2062L5.76441 48.2503L5.78646 48.2834Z" fill="#D9693B"/>
</svg>
