<svg width="384" height="77" viewBox="0 0 384 77" fill="none" xmlns="http://www.w3.org/2000/svg">
<path d="M106.071 57.4633L91.9565 18.5499H106.517L113.351 43.3062L120.186 18.5499H134.226L120.112 57.4633H106.071Z" fill="white"/>
<path d="M173.87 44.9369C173.077 49.483 171.121 52.9172 168.001 55.2397C164.881 57.5127 160.646 58.6492 155.298 58.6492C148.859 58.6492 143.956 56.9444 140.588 53.5349C137.221 50.1253 135.537 45.1593 135.537 38.6366C135.537 31.9658 137.295 26.7526 140.811 22.9972C144.328 19.2417 149.206 17.364 155.446 17.364C161.34 17.364 165.921 19.0935 169.189 22.5525C172.508 25.962 174.167 30.7551 174.167 36.9319V41.1567H148.463C148.661 43.9239 149.28 45.9252 150.32 47.1605C151.36 48.3959 152.97 49.0135 155.149 49.0135C158.517 49.0135 160.572 47.6546 161.315 44.9369H173.87ZM161.761 33.5223C161.662 31.1999 161.092 29.5198 160.052 28.4821C159.061 27.395 157.526 26.8515 155.446 26.8515C151.286 26.8515 148.958 29.0751 148.463 33.5223H161.761Z" fill="white"/>
<path d="M181.195 57.4633V18.5499H194.27V23.2937C195.607 21.4654 197.167 20.1065 198.95 19.217C200.733 18.3276 202.813 17.8829 205.19 17.8829C206.577 17.8829 207.84 18.0064 208.979 18.2535L207.493 29.7422C206.453 29.4457 205.066 29.2974 203.333 29.2974C200.708 29.2974 198.677 29.8163 197.241 30.854C195.508 32.1387 194.641 34.3623 194.641 37.5248V57.4633H181.195Z" fill="white"/>
<path d="M238.161 51.2371C235.487 54.3502 231.822 55.9067 227.167 55.9067C222.214 55.9067 218.376 54.2761 215.652 51.0148C212.928 47.7535 211.566 43.158 211.566 37.2283C211.566 31.101 213.027 26.2585 215.949 22.7007C218.871 19.1429 222.858 17.364 227.909 17.364C232.565 17.364 236.106 18.9947 238.533 22.256V18.4758H251.607V52.6454C251.607 59.4151 249.973 64.4306 246.704 67.6919C243.436 71.0027 238.409 72.658 231.624 72.658C220.134 72.658 213.968 68.0872 213.126 58.9457H226.275C226.622 61.614 228.454 62.9482 231.772 62.9482C234.199 62.9482 235.858 62.207 236.75 60.7246C237.691 59.2916 238.161 56.6727 238.161 52.8678V51.2371ZM238.161 36.1907C238.161 33.5223 237.641 31.5211 236.601 30.1869C235.462 28.7539 233.828 28.0374 231.698 28.0374C229.618 28.0374 228.008 28.7786 226.869 30.261C225.73 31.7434 225.161 33.8435 225.161 36.5613C225.161 39.279 225.706 41.3791 226.795 42.8615C227.934 44.2945 229.544 45.011 231.624 45.011C233.654 45.011 235.313 44.2451 236.601 42.7133C237.641 41.4285 238.161 39.5755 238.161 37.1542V36.1907Z" fill="white"/>
<path d="M296.982 44.9369C296.189 49.483 294.233 52.9172 291.113 55.2397C287.993 57.5127 283.758 58.6492 278.41 58.6492C271.971 58.6492 267.068 56.9444 263.701 53.5349C260.333 50.1253 258.649 45.1593 258.649 38.6366C258.649 31.9658 260.407 26.7526 263.923 22.9972C267.44 19.2417 272.318 17.364 278.558 17.364C284.452 17.364 289.033 19.0935 292.301 22.5525C295.62 25.962 297.279 30.7551 297.279 36.9319V41.1567H271.575C271.773 43.9239 272.392 45.9252 273.432 47.1605C274.472 48.3959 276.082 49.0135 278.261 49.0135C281.629 49.0135 283.684 47.6546 284.427 44.9369H296.982ZM284.873 33.5223C284.774 31.1999 284.204 29.5198 283.164 28.4821C282.173 27.395 280.638 26.8515 278.558 26.8515C274.398 26.8515 272.07 29.0751 271.575 33.5223H284.873Z" fill="white"/>
<path d="M302.336 57.4633V43.3062H315.262V57.4633H302.336Z" fill="white"/>
<path d="M322.806 57.4633V18.5499H336.253V57.4633H322.806ZM322.732 14.2509V4.54114H336.327V14.2509H322.732Z" fill="white"/>
<path d="M363.369 58.6492C357.03 58.6492 352.102 56.8703 348.586 53.3125C345.069 49.7053 343.311 44.6651 343.311 38.1919C343.311 31.6199 345.094 26.5056 348.66 22.8489C352.275 19.1923 357.277 17.364 363.666 17.364C370.005 17.364 374.933 19.1676 378.449 22.7748C381.966 26.382 383.724 31.4222 383.724 37.8954C383.724 44.418 381.941 49.5077 378.375 53.1643C374.809 56.8209 369.807 58.6492 363.369 58.6492ZM363.517 48.05C367.925 48.05 370.129 44.6898 370.129 37.9695C370.129 31.2987 367.925 27.9633 363.517 27.9633C359.11 27.9633 356.906 31.3234 356.906 38.0437C356.906 44.7145 359.11 48.05 363.517 48.05Z" fill="white"/>
<path d="M65.2819 76.3322L69.1743 69.6447L37.8582 69.6996L21.7039 41.3466L17.8886 47.8364L34.1201 76.1125L34.1422 76.1016V76.1455L65.2819 76.3322Z" fill="white"/>
<path d="M70.9897 66.36H71.0338L71.0448 66.272L87.4629 38.8604L83.1406 32.9157L67.2738 59.8319L43.3469 59.7989L27.5903 31.4075L23.654 37.9356L39.8736 66.2169L70.9015 66.36L70.9676 66.3931L70.9897 66.36Z" fill="white"/>
<path d="M65.9814 0.198767L58.2716 0.25379L74.0964 27.1582L57.8445 55.4601L65.3681 55.4491L81.4886 27.1142L81.4667 27.1032L81.4995 27.0812L65.9814 0.198767Z" fill="white"/>
<path d="M54.3225 0.231531L54.3004 0.198454L54.2122 0.231531L22.224 -1.1497e-05L19.2799 6.74782L50.5624 6.74782L62.6806 27.3882L46.1628 55.3829L53.7932 55.4601L69.9692 27.1236L54.3666 0.308711V0.231531H54.3225Z" fill="white"/>
<path d="M-0.000292075 38.2258L3.86083 44.9246L19.526 17.965L52.2793 18.272L48.5506 11.7376L15.8303 11.5293V11.5512L15.7972 11.5293L-0.000292075 38.2258Z" fill="white"/>
<path d="M5.78646 48.2833L5.76441 48.3274L5.83058 48.3715L21.3489 76.3322H29.0916L13.3085 48.3494L25.3416 27.6819L57.8452 28.3319L54.1724 21.6447L21.5254 21.4684L5.83058 48.2062L5.76441 48.2503L5.78646 48.2833Z" fill="white"/>
</svg>
