<?xml version="1.0" encoding="UTF-8" standalone="no"?>
<svg
   width="144"
   zoomAndPan="magnify"
   viewBox="0 0 108 27.000001"
   height="36"
   preserveAspectRatio="xMidYMid"
   version="1.2"
   id="svg2472"
   sodipodi:docname="logo-dark.svg"
   xml:space="preserve"
   inkscape:version="1.2.2 (b0a8486541, 2022-12-01)"
   xmlns:inkscape="http://www.inkscape.org/namespaces/inkscape"
   xmlns:sodipodi="http://sodipodi.sourceforge.net/DTD/sodipodi-0.dtd"
   xmlns="http://www.w3.org/2000/svg"
   xmlns:svg="http://www.w3.org/2000/svg"><g
     id="g497"
     transform="matrix(1.2458691,0,0,1.2458691,0.76055229,2.9305241)"><g
       style="fill:none"
       id="g2734"
       transform="scale(0.21601034)"
       inkscape:label="logo"><path
         d="m 65.283105,76.332181 3.8925,-6.6875 -31.3162,0.0549 -16.1542,-28.353 -3.8153,6.4898 16.2315,28.2762 0.022,-0.011 v 0.0439 z"
         fill="#d9693b"
         id="path18" /><path
         d="m 70.990405,66.360081 h 0.0442 l 0.011,-0.0881 16.4181,-27.4116 -4.3223,-5.9447 -15.8668,26.9162 -23.927,-0.033 -15.7565,-28.3914 -3.9363,6.5282 16.2196,28.2813 31.0278,0.1431 0.0662,0.033 z"
         fill="#d9693b"
         id="path20" /><path
         d="m 65.982205,0.19877993 -7.7098,0.055023 15.8247,26.90437807 -16.2518,28.3019 7.5236,-0.011 16.1204,-28.3349 -0.0219,-0.011 0.0329,-0.022 z"
         fill="#d9693b"
         id="path22" /><path
         d="m 54.323705,0.23154093 -0.022,-0.033074 -0.0882,0.033074 L 22.225305,0 l -2.9441,6.7478209 h 31.2825 l 12.1182,20.6404601 -16.5179,27.9946 7.6305,0.0772 16.176,-28.3365 -15.6027,-26.81485707 v -0.077183 z"
         fill="#d9693b"
         id="path24" /><path
         d="m 0,38.225881 3.8611255,6.6988 15.6650795,-26.9597 32.7534,0.307 -3.7288,-6.5343 -32.7202,-0.2083 v 0.0219 l -0.0331,-0.0219 z"
         fill="#d9693b"
         id="path26" /><path
         d="m 5.7862654,48.283381 -0.02205,0.044 0.06617,0.0441 15.5183196,27.9607 h 7.7427 l -15.7831,-27.9827 12.0331,-20.6676 32.5036,0.65 -3.6728,-6.6872 -32.647,-0.1763 -15.6948195,26.7378 -0.06617,0.0441 z"
         fill="#d9693b"
         id="path28" /></g><g
       aria-label="VergeOS"
       transform="scale(0.99509677,1.0049274)"
       id="text310"
       style="font-weight:800;font-size:13.7035px;line-height:1.25;font-family:Poppins;-inkscape-font-specification:'Poppins Ultra-Bold';letter-spacing:0px;word-spacing:0px;display:inline;fill:#000000;stroke-width:0.734119"><path
         d="m 34.690408,3.440906 -3.32995,9.660967 H 27.920879 L 24.577225,3.440906 h 2.877735 l 2.19256,6.975081 2.178857,-6.975081 z"
         id="path715"
         style="fill:#000000" /><path
         d="m 42.871394,9.168969 q 0,0.3151805 -0.04111,0.6303609 h -5.083998 q 0.04111,0.6303611 0.342587,0.9455411 0.315181,0.301477 0.794803,0.301477 0.671472,0 0.959245,-0.602954 h 2.864031 q -0.178145,0.794803 -0.698878,1.425164 -0.50703,0.616658 -1.288129,0.972949 -0.7811,0.356291 -1.726641,0.356291 -1.13739,0 -2.028118,-0.479623 -0.877024,-0.479622 -1.384053,-1.37035 -0.493326,-0.890727 -0.493326,-2.096635 0,-1.205908 0.493326,-2.082932 0.493326,-0.8907275 1.37035,-1.37035 0.890727,-0.4796225 2.041821,-0.4796225 1.13739,0 2.014414,0.465919 0.877024,0.465919 1.37035,1.342943 0.493326,0.8633205 0.493326,2.0418215 z m -2.7407,-0.6714715 q 0,-0.493326 -0.328883,-0.767396 -0.328884,-0.2877735 -0.82221,-0.2877735 -0.493326,0 -0.808507,0.27407 -0.31518,0.2603665 -0.411105,0.7810995 z"
         id="path717"
         style="fill:#000000" /><path
         d="m 46.65355,6.7708565 q 0.452215,-0.657768 1.09628,-1.041466 0.644064,-0.383698 1.384053,-0.383698 V 8.209724 h -0.753692 q -0.877024,0 -1.301833,0.3425875 Q 46.65355,8.894899 46.65355,9.7445159 V 13.101873 H 43.967664 V 5.41421 h 2.685886 z"
         id="path719"
         style="fill:#000000" /><path
         d="m 52.929759,5.3182855 q 0.7811,0 1.356647,0.3151805 0.58925,0.3151805 0.904431,0.849617 V 5.41421 h 2.685886 v 7.605442 q 0,1.082577 -0.411105,1.945897 -0.411105,0.877024 -1.288129,1.397757 -0.863321,0.520733 -2.19256,0.520733 -1.781455,0 -2.850328,-0.835913 -1.068873,-0.835914 -1.219612,-2.274781 h 2.644776 q 0.08222,0.369994 0.411105,0.575547 0.328884,0.205552 0.849617,0.205552 1.37035,0 1.37035,-1.534792 V 12.033 q -0.315181,0.534437 -0.904431,0.849617 -0.575547,0.315181 -1.356647,0.315181 -0.918134,0 -1.671827,-0.479623 -0.739989,-0.479622 -1.178501,-1.37035 -0.424808,-0.904431 -0.424808,-2.096635 0,-1.1922045 0.424808,-2.082932 0.438512,-0.8907275 1.178501,-1.37035 0.753693,-0.4796225 1.671827,-0.4796225 z M 55.190837,9.25119 q 0,-0.739989 -0.411105,-1.1647975 Q 54.38233,7.661584 53.79308,7.661584 q -0.602954,0 -1.000356,0.4248085 -0.397401,0.411105 -0.397401,1.1647975 0,0.7399889 0.397401,1.178501 0.397402,0.424808 1.000356,0.424808 0.58925,0 0.986652,-0.424808 0.411105,-0.424809 0.411105,-1.178501 z"
         id="path721"
         style="fill:#000000" /><path
         d="m 66.756595,9.168969 q 0,0.3151805 -0.04111,0.6303609 h -5.083998 q 0.04111,0.6303611 0.342588,0.9455411 0.31518,0.301477 0.794803,0.301477 0.671471,0 0.959245,-0.602954 h 2.864031 q -0.178146,0.794803 -0.698879,1.425164 -0.507029,0.616658 -1.288129,0.972949 -0.781099,0.356291 -1.72664,0.356291 -1.137391,0 -2.028118,-0.479623 -0.877024,-0.479622 -1.384054,-1.37035 -0.493326,-0.890727 -0.493326,-2.096635 0,-1.205908 0.493326,-2.082932 0.493326,-0.8907275 1.37035,-1.37035 0.890728,-0.4796225 2.041822,-0.4796225 1.13739,0 2.014414,0.465919 0.877024,0.465919 1.37035,1.342943 0.493326,0.8633205 0.493326,2.0418215 z m -2.7407,-0.6714715 q 0,-0.493326 -0.328884,-0.767396 -0.328884,-0.2877735 -0.82221,-0.2877735 -0.493326,0 -0.808506,0.27407 -0.315181,0.2603665 -0.411105,0.7810995 z"
         id="path723"
         style="fill:#000000" /><path
         d="m 72.484647,13.197798 q -1.356646,0 -2.494037,-0.630361 -1.13739,-0.644065 -1.808862,-1.767752 -0.657768,-1.1373901 -0.657768,-2.562554 0,-1.425164 0.657768,-2.548851 0.671472,-1.1373905 1.808862,-1.7677515 1.137391,-0.630361 2.494037,-0.630361 1.37035,0 2.494037,0.630361 1.137391,0.630361 1.795159,1.7677515 0.657768,1.123687 0.657768,2.548851 0,1.4251639 -0.657768,2.562554 -0.657768,1.123687 -1.795159,1.767752 -1.13739,0.630361 -2.494037,0.630361 z m 0,-2.494037 q 1.027763,0 1.617013,-0.671472 0.602954,-0.671471 0.602954,-1.795158 0,-1.151094 -0.602954,-1.808862 -0.58925,-0.6714715 -1.617013,-0.6714715 -1.041466,0 -1.630716,0.6714715 -0.589251,0.657768 -0.589251,1.808862 0,1.1373905 0.589251,1.808862 0.58925,0.657768 1.630716,0.657768 z"
         id="path725"
         style="fill:#000000" /><path
         d="m 82.282659,13.197798 q -1.68553,0 -2.768107,-0.794803 -1.082576,-0.808507 -1.164797,-2.302188 h 2.864031 q 0.04111,0.507029 0.301477,0.739989 0.260367,0.232959 0.671472,0.232959 0.369994,0 0.602954,-0.178145 0.246663,-0.191849 0.246663,-0.520733 0,-0.4248086 -0.397402,-0.6577681 Q 82.241549,9.4841495 81.350821,9.196376 80.40528,8.8811955 79.816029,8.593422 79.240482,8.291945 78.80197,7.7301015 78.377162,7.1545545 78.377162,6.23642 q 0,-0.931838 0.465919,-1.589606 0.465919,-0.6714715 1.288129,-1.014059 0.82221,-0.3425875 1.863676,-0.3425875 1.68553,0 2.685886,0.794803 1.014059,0.7810995 1.082576,2.2062635 H 82.844503 Q 82.830799,5.852722 82.570433,5.633466 82.32377,5.41421 81.926368,5.41421 q -0.301477,0 -0.493326,0.1781455 -0.191849,0.1781455 -0.191849,0.5070295 0,0.27407 0.205553,0.4796225 0.219256,0.191849 0.534436,0.3425875 0.315181,0.137035 0.931838,0.356291 0.918135,0.3151805 1.507385,0.630361 0.602954,0.301477 1.027763,0.8633205 0.438512,0.54814 0.438512,1.3977565 0,0.863321 -0.438512,1.548496 -0.424809,0.685175 -1.247019,1.082576 -0.808506,0.397402 -1.91849,0.397402 z"
         id="path727"
         style="fill:#000000" /></g></g><sodipodi:namedview
     id="namedview2474"
     pagecolor="#d0d0d0"
     bordercolor="#666666"
     borderopacity="1.0"
     inkscape:showpageshadow="2"
     inkscape:pageopacity="0"
     inkscape:pagecheckerboard="0"
     inkscape:deskcolor="#d1d1d1"
     showgrid="false"
     inkscape:zoom="19.006944"
     inkscape:cx="72"
     inkscape:cy="7.7340153"
     inkscape:window-width="3440"
     inkscape:window-height="1372"
     inkscape:window-x="0"
     inkscape:window-y="0"
     inkscape:window-maximized="1"
     inkscape:current-layer="g497" /><defs
     id="defs2458"><clipPath
       id="05a23c742e"><path
         d="M 3.46875,4.410156 H 104 V 24.730469 H 3.46875 Z m 0,0"
         id="path2455" /></clipPath></defs><g
     id="fc800e7baa"
     transform="translate(-8.2888501,-7.0708695)" /><g
     aria-label="VergeOS"
     id="text2738"
     style="font-weight:800;font-size:14px;line-height:1.25;font-family:'CocoSharp Trial';-inkscape-font-specification:'CocoSharp Trial Ultra-Bold';letter-spacing:0px;word-spacing:0px;display:none;stroke-width:0.75"
     transform="translate(-8.2888501,-7.0708695)"><path
       d="m 39.571456,20.370129 h -2.1 l -3.766,-9.835 h 2.695 l 2.107,6.279 h 0.028 l 2.1,-6.279 h 2.702 z"
       id="path406" /><path
       d="m 45.129456,17.423129 q 0.196,0.56 0.651,0.868 0.462,0.301 1.064,0.301 0.455,0 0.805,-0.14 0.357,-0.147 0.665,-0.413 l 1.078,1.554 q -0.525,0.469 -1.211,0.728 -0.679,0.252 -1.491,0.252 -1.113,0 -2.002,-0.525 -0.889,-0.525 -1.393,-1.414 -0.497,-0.889 -0.497,-1.932 0,-1.064 0.476,-1.96 0.476,-0.896 1.316,-1.421 0.847,-0.525 1.911,-0.525 1.169,0 2.009,0.49 0.84,0.483 1.274,1.351 0.434,0.868 0.434,1.995 0,0.385 -0.063,0.791 z m 1.47,-2.73 q -0.567,0 -0.966,0.308 -0.392,0.308 -0.546,0.889 h 2.968 q -0.147,-0.588 -0.525,-0.889 -0.371,-0.308 -0.931,-0.308 z"
       id="path408" /><path
       d="m 55.461466,12.803129 c 0.303333,0 0.604333,0.05133 0.903,0.154 0.298667,0.102667 0.583333,0.254333 0.854,0.455 l -1.043,1.925 c -0.340667,-0.242667 -0.679,-0.364 -1.015,-0.364 -0.247333,0 -0.478333,0.06767 -0.693,0.203 -0.21,0.130667 -0.380333,0.326667 -0.511,0.588 -0.130667,0.256667 -0.196,0.56 -0.196,0.91 v 3.696 h -2.366 v -7.42 l 2.169785,-2.77e-4 v 0.910277 c 0.21,-0.336 0.476215,-0.595 0.798215,-0.777 0.322,-0.186667 0.688333,-0.28 1.099,-0.28 z"
       id="path410"
       sodipodi:nodetypes="ssccsccsccccccs" /><path
       d="m 62.552251,12.950129 h 2.079235 v 6.3 c 0,0.793333 -0.149333,1.474667 -0.448,2.044 -0.298667,0.569333 -0.739667,1.003333 -1.323,1.302 -0.578667,0.303333 -1.281,0.455 -2.107,0.455 -0.564667,0 -1.164333,-0.08167 -1.799,-0.245 -0.634667,-0.163333 -1.141,-0.380333 -1.519,-0.651 l 0.882,-1.792 c 0.373333,0.21 0.737333,0.368667 1.092,0.476 0.359333,0.112 0.728,0.168 1.106,0.168 0.546,0 0.98,-0.135333 1.302,-0.406 0.322,-0.266 0.483,-0.669667 0.483,-1.211 v -0.07 c -0.513333,0.406 -1.117667,0.609 -1.813,0.609 -0.648667,0 -1.248333,-0.144667 -1.799,-0.434 -0.550667,-0.294 -0.989333,-0.7 -1.316,-1.218 -0.322,-0.522667 -0.483,-1.110667 -0.483,-1.764 0,-0.658 0.163333,-1.274 0.49,-1.848 0.326667,-0.574 0.765333,-1.031333 1.316,-1.372 0.555333,-0.345333 1.155,-0.518 1.799,-0.518 0.816667,0 1.502432,0.284667 2.057765,0.854 z m -1.735765,4.977 c 0.289333,0 0.553,-0.06767 0.791,-0.203 0.242667,-0.14 0.431667,-0.324333 0.567,-0.553 0.135333,-0.233333 0.203,-0.480667 0.203,-0.742 0,-0.289333 -0.07,-0.553 -0.21,-0.791 -0.135333,-0.238 -0.322,-0.424667 -0.56,-0.56 -0.238,-0.14 -0.501667,-0.21 -0.791,-0.21 -0.289333,0 -0.555333,0.07 -0.798,0.21 -0.242667,0.135333 -0.434,0.322 -0.574,0.56 -0.135333,0.238 -0.203,0.501667 -0.203,0.791 0,0.261333 0.06767,0.508667 0.203,0.742 0.14,0.228667 0.331333,0.413 0.574,0.553 0.242667,0.135333 0.508667,0.203 0.798,0.203 z"
       id="path412"
       sodipodi:nodetypes="ccsscsscccscscsccsscsccsccsccsccsccs" /><path
       d="m 68.138474,17.423129 q 0.196,0.56 0.651,0.868 0.462,0.301 1.064,0.301 0.455,0 0.805,-0.14 0.357,-0.147 0.665,-0.413 l 1.078,1.554 q -0.525,0.469 -1.211,0.728 -0.679,0.252 -1.491,0.252 -1.113,0 -2.002,-0.525 -0.889,-0.525 -1.393,-1.414 -0.497,-0.889 -0.497,-1.932 0,-1.064 0.476,-1.96 0.476,-0.896 1.316,-1.421 0.847,-0.525 1.911,-0.525 1.169,0 2.009,0.49 0.84,0.483 1.274,1.351 0.434,0.868 0.434,1.995 0,0.385 -0.063,0.791 z m 1.47,-2.73 q -0.567,0 -0.966,0.308 -0.392,0.308 -0.546,0.889 h 2.968 q -0.147,-0.588 -0.525,-0.889 -0.371,-0.308 -0.931,-0.308 z"
       id="path414" /><path
       d="m 79.212484,20.545129 q -1.421,0 -2.597,-0.686 -1.169,-0.686 -1.848,-1.855 -0.672,-1.169 -0.672,-2.569 0,-1.4 0.672,-2.569 0.679,-1.169 1.848,-1.841 1.169,-0.679 2.597,-0.679 1.421,0 2.59,0.679 1.169,0.679 1.841,1.848 0.679,1.162 0.679,2.562 0,1.393 -0.679,2.569 -0.672,1.169 -1.848,1.855 -1.169,0.686 -2.583,0.686 z m 0,-2.415 q 0.679,0 1.267,-0.35 0.588,-0.357 0.938,-0.973 0.35,-0.623 0.35,-1.365 0,-0.742 -0.357,-1.358 -0.35,-0.616 -0.938,-0.966 -0.588,-0.357 -1.26,-0.357 -0.679,0 -1.267,0.357 -0.588,0.35 -0.945,0.966 -0.35,0.616 -0.35,1.358 0,0.742 0.35,1.358 0.357,0.616 0.945,0.973 0.595,0.357 1.267,0.357 z"
       id="path416" /><path
       d="m 89.054481,20.538129 q -1.19,0 -2.226,-0.455 -1.036,-0.455 -1.855,-1.33 l 1.596,-1.659 q 1.155,1.113 2.422,1.113 0.595,0 0.889,-0.203 0.294,-0.203 0.294,-0.553 0,-0.238 -0.133,-0.413 -0.126,-0.175 -0.497,-0.35 -0.364,-0.175 -1.071,-0.385 -1.183,-0.35 -2.023,-1.036 -0.833,-0.693 -0.833,-2.023 0,-0.777 0.35,-1.435 0.357,-0.658 1.113,-1.057 0.756,-0.406 1.904,-0.406 1.106,0 1.988,0.364 0.889,0.364 1.624,1.036 l -1.421,1.736 q -0.378,-0.35 -0.952,-0.595 -0.567,-0.252 -1.134,-0.252 -0.462,0 -0.707,0.189 -0.245,0.189 -0.245,0.511 0,0.189 0.147,0.329 0.154,0.14 0.42,0.252 0.266,0.112 0.819,0.301 0.042,0.014 0.084,0.035 0.049,0.014 0.112,0.035 0.994,0.35 1.645,0.749 0.651,0.399 1.008,0.98 0.357,0.574 0.357,1.386 0,0.938 -0.455,1.652 -0.455,0.707 -1.288,1.099 -0.833,0.385 -1.932,0.385 z"
       id="path418" /></g></svg>
